<svg xmlns="http://www.w3.org/2000/svg" viewBox="0 0 512 512">
  <defs>
    <radialGradient id="sun" cx="34%" cy="24%" r="72%">
      <stop offset="0%" stop-color="#fff7dc"/>
      <stop offset="44%" stop-color="#f4c879"/>
      <stop offset="100%" stop-color="#d87b38"/>
    </radialGradient>
    <linearGradient id="leaf" x1="120" x2="390" y1="388" y2="124">
      <stop offset="0%" stop-color="#0d7a5f"/>
      <stop offset="58%" stop-color="#38a36e"/>
      <stop offset="100%" stop-color="#b5d686"/>
    </linearGradient>
    <linearGradient id="ink" x1="132" x2="392" y1="362" y2="138">
      <stop offset="0%" stop-color="#17352d"/>
      <stop offset="100%" stop-color="#0d7a5f"/>
    </linearGradient>
    <filter id="shadow" x="-20%" y="-20%" width="140%" height="140%">
      <feDropShadow dx="0" dy="18" stdDeviation="18" flood-color="#493622" flood-opacity="0.18"/>
    </filter>
  </defs>

  <rect width="512" height="512" rx="128" fill="#f7efe1"/>
  <circle cx="256" cy="256" r="192" fill="url(#sun)" opacity="0.28"/>
  <path
    fill="url(#leaf)"
    filter="url(#shadow)"
    d="M398 126c-6 90-34 160-84 210-54 54-124 70-199 57-12-75 3-146 56-199 51-51 124-75 227-68Z"
  />
  <path
    fill="none"
    stroke="url(#ink)"
    stroke-linecap="round"
    stroke-width="30"
    d="M142 368c82-92 161-156 239-219"
  />
  <path
    fill="none"
    stroke="#fffaf1"
    stroke-linecap="round"
    stroke-width="22"
    d="M164 300c31-8 54-5 76 12M217 245c28-3 49 2 68 16M275 197c23-1 40 4 55 15"
    opacity="0.82"
  />
  <circle cx="252" cy="254" r="54" fill="#fffaf1" opacity="0.94"/>
  <circle cx="252" cy="254" r="27" fill="#0d7a5f"/>
  <circle cx="262" cy="242" r="8" fill="#fff7dc" opacity="0.95"/>
</svg>
